<svg aria-hidden="true" focusable="false" data-prefix="fad" data-icon="chart-simple" class="svg-inline--fa fa-chart-simple " role="img" xmlns="http://www.w3.org/2000/svg" viewBox="0 0 448 512"><g class="fa-duotone-group"><path class="fa-secondary" fill="currentColor" d="M160 80c0-26.5 21.5-48 48-48h32c26.5 0 48 21.5 48 48V432c0 26.5-21.5 48-48 48H208c-26.5 0-48-21.5-48-48V80z"></path><path class="fa-primary" fill="currentColor" d="M368 96c-26.5 0-48 21.5-48 48V432c0 26.5 21.5 48 48 48h32c26.5 0 48-21.5 48-48V144c0-26.5-21.5-48-48-48H368zM48 224c-26.5 0-48 21.5-48 48V432c0 26.5 21.5 48 48 48H80c26.5 0 48-21.5 48-48V272c0-26.5-21.5-48-48-48H48z"></path></g></svg>